<svg width="18" height="18" viewBox="0 0 18 18" fill="none" xmlns="http://www.w3.org/2000/svg">
<path d="M4.09663 15.7392C3.03332 14.9666 2.16814 13.9531 1.57195 12.7817C0.975764 11.6103 0.66552 10.3144 0.666629 9.00002C0.666629 4.39752 4.39746 0.666687 8.99996 0.666687C13.6025 0.666687 17.3333 4.39752 17.3333 9.00002C17.3344 10.3144 17.0242 11.6103 16.428 12.7817C15.8318 13.9531 14.9666 14.9666 13.9033 15.7392L13.0575 14.29C14.1628 13.4422 14.9748 12.2694 15.3793 10.9364C15.7839 9.60334 15.7607 8.17708 15.313 6.85791C14.8653 5.53875 14.0157 4.39296 12.8834 3.58149C11.7511 2.77002 10.393 2.33363 8.99996 2.33363C7.60691 2.33363 6.24885 2.77002 5.11654 3.58149C3.98424 4.39296 3.13458 5.53875 2.68691 6.85791C2.23924 8.17708 2.21606 9.60334 2.62061 10.9364C3.02516 12.2694 3.83713 13.4422 4.94246 14.29L4.09663 15.7392ZM5.79163 12.835C5.00415 12.1762 4.43858 11.2909 4.17176 10.2995C3.90493 9.30805 3.9498 8.2585 4.30025 7.29344C4.6507 6.32838 5.28976 5.4946 6.13058 4.90539C6.97141 4.31618 7.97324 4.0001 8.99996 4.0001C10.0267 4.0001 11.0285 4.31618 11.8693 4.90539C12.7102 5.4946 13.3492 6.32838 13.6997 7.29344C14.0501 8.2585 14.095 9.30805 13.8282 10.2995C13.5613 11.2909 12.9958 12.1762 12.2083 12.835L11.35 11.3634C11.8181 10.898 12.1376 10.3041 12.2678 9.65692C12.398 9.00978 12.3332 8.33854 12.0815 7.7283C11.8297 7.11806 11.4025 6.59629 10.8539 6.22914C10.3053 5.86199 9.66008 5.666 8.99996 5.666C8.33985 5.666 7.69459 5.86199 7.146 6.22914C6.59741 6.59629 6.17018 7.11806 5.91847 7.7283C5.66676 8.33854 5.60191 9.00978 5.73214 9.65692C5.86236 10.3041 6.1818 10.898 6.64996 11.3634L5.79163 12.835ZM8.16663 9.83335H9.8333L10.6666 17.3334H7.3333L8.16663 9.83335Z" fill="#B3B3B3"/>
</svg>
