<svg width="20" height="20" viewBox="0 0 20 20" fill="none" xmlns="http://www.w3.org/2000/svg">
<path fill-rule="evenodd" clip-rule="evenodd" d="M9.16673 1.65039C7.78237 1.65039 6.65908 2.76814 6.65012 4.15039H4.16673H3.3334C2.86396 4.15039 2.4834 4.53095 2.4834 5.00039C2.4834 5.46983 2.86396 5.85039 3.3334 5.85039H4.16673H4.30554L4.98719 15.9845L4.98731 15.9864C5.06786 17.2591 6.12364 18.2504 7.39915 18.2504H12.601C13.8765 18.2504 14.9322 17.2592 15.0128 15.9865L15.0129 15.9845L15.6946 5.85039H15.8334H16.6667C17.1362 5.85039 17.5167 5.46983 17.5167 5.00039C17.5167 4.53095 17.1362 4.15039 16.6667 4.15039H15.8334H13.35C13.341 2.76814 12.2178 1.65039 10.8334 1.65039H9.16673ZM11.6499 4.15039H8.35023C8.35911 3.70705 8.72127 3.35039 9.16673 3.35039H10.8334C11.2789 3.35039 11.641 3.70705 11.6499 4.15039ZM12.7659 8.37012C12.786 7.90111 12.4221 7.5046 11.9531 7.4845C11.4841 7.4644 11.0876 7.82832 11.0675 8.29733L10.8175 14.1307C10.7974 14.5997 11.1613 14.9962 11.6303 15.0163C12.0993 15.0364 12.4958 14.6725 12.5159 14.2035L12.7659 8.37012ZM8.93261 8.29733C8.91251 7.82832 8.516 7.4644 8.04699 7.4845C7.57798 7.5046 7.21406 7.90111 7.23417 8.37012L7.48417 14.2035C7.50427 14.6725 7.90077 15.0364 8.36978 15.0163C8.83879 14.9962 9.20271 14.5997 9.18261 14.1307L8.93261 8.29733Z" fill="#191B1D" fill-opacity="0.2"/>
</svg>
