<svg width="20" height="20" viewBox="0 0 20 20" fill="none" xmlns="http://www.w3.org/2000/svg">
<path d="M14.1665 4.99999H18.3332V6.66666H16.6665V17.5C16.6665 17.721 16.5787 17.933 16.4224 18.0892C16.2661 18.2455 16.0542 18.3333 15.8332 18.3333H4.1665C3.94549 18.3333 3.73353 18.2455 3.57725 18.0892C3.42097 17.933 3.33317 17.721 3.33317 17.5V6.66666H1.6665V4.99999H5.83317V2.49999C5.83317 2.27898 5.92097 2.06701 6.07725 1.91073C6.23353 1.75445 6.44549 1.66666 6.6665 1.66666H13.3332C13.5542 1.66666 13.7661 1.75445 13.9224 1.91073C14.0787 2.06701 14.1665 2.27898 14.1665 2.49999V4.99999ZM14.9998 6.66666H4.99984V16.6667H14.9998V6.66666ZM7.49984 3.33332V4.99999H12.4998V3.33332H7.49984Z" fill="#B2B2B2"/>
</svg>
