<svg width="20" height="20" viewBox="0 0 20 20" fill="none" xmlns="http://www.w3.org/2000/svg">
<path fill-rule="evenodd" clip-rule="evenodd" d="M9.05732 7.51659C8.68152 8.94581 7.38053 9.99992 5.83333 9.99992C3.99238 9.99992 2.5 8.50753 2.5 6.66659C2.5 4.82564 3.99238 3.33325 5.83333 3.33325C7.38053 3.33325 8.68152 4.38736 9.05732 5.81659H15.8333C16.3028 5.81659 16.6833 6.19714 16.6833 6.66659C16.6833 7.13603 16.3028 7.51659 15.8333 7.51659H9.05732ZM3.31667 13.3333C3.31667 12.8638 3.69722 12.4833 4.16667 12.4833H10.9427C11.3185 11.054 12.6195 9.99992 14.1667 9.99992C16.0076 9.99992 17.5 11.4923 17.5 13.3333C17.5 15.1742 16.0076 16.6666 14.1667 16.6666C12.6195 16.6666 11.3185 15.6125 10.9427 14.1833H4.16667C3.69722 14.1833 3.31667 13.8027 3.31667 13.3333Z" fill="#191B1D" fill-opacity="0.5"/>
</svg>
