<svg width="14" height="10" viewBox="0 0 14 10" fill="none" xmlns="http://www.w3.org/2000/svg">
<path fill-rule="evenodd" clip-rule="evenodd" d="M5.89422 9C5.76176 9 5.62956 8.94826 5.5284 8.84736L1.15178 4.46997C0.949731 4.26817 0.949731 3.94219 1.15178 3.7404C1.35384 3.53602 1.68137 3.53602 1.88368 3.7404L5.89422 7.75042L12.4919 1.15329C12.6939 0.948905 13.0215 0.948905 13.2238 1.15329C13.4258 1.35508 13.4258 1.68106 13.2238 1.88285L6.26004 8.84736C6.15888 8.94826 6.02668 9 5.89422 9Z" fill="white"/>
<path d="M5.89422 9C5.76176 9 5.62956 8.94826 5.5284 8.84736L1.15178 4.46997C0.949731 4.26817 0.949731 3.94219 1.15178 3.7404C1.35384 3.53602 1.68137 3.53602 1.88368 3.7404L5.89422 7.75042L12.4919 1.15329C12.6939 0.948905 13.0215 0.948905 13.2238 1.15329C13.4258 1.35508 13.4258 1.68106 13.2238 1.88285L6.26004 8.84736C6.15888 8.94826 6.02668 9 5.89422 9" stroke="white" stroke-width="0.5"/>
</svg>
