<svg width="20" height="20" viewBox="0 0 20 20" fill="none" xmlns="http://www.w3.org/2000/svg">
<path d="M14.1667 11.6667H10.5492C10.156 12.7787 9.38238 13.7159 8.36503 14.3127C7.34767 14.9095 6.1521 15.1275 4.9896 14.928C3.82711 14.7285 2.77255 14.1246 2.01232 13.2228C1.25208 12.321 0.835114 11.1795 0.835114 10C0.835114 8.82053 1.25208 7.67902 2.01232 6.77724C2.77255 5.87546 3.82711 5.27147 4.9896 5.07202C6.1521 4.87257 7.34767 5.0905 8.36503 5.68729C9.38238 6.28409 10.156 7.22132 10.5492 8.33334H19.1667V11.6667H17.5V15H14.1667V11.6667ZM5.83333 11.6667C6.27535 11.6667 6.69928 11.4911 7.01184 11.1785C7.3244 10.866 7.49999 10.442 7.49999 10C7.49999 9.55798 7.3244 9.13406 7.01184 8.8215C6.69928 8.50894 6.27535 8.33334 5.83333 8.33334C5.3913 8.33334 4.96737 8.50894 4.65481 8.8215C4.34225 9.13406 4.16666 9.55798 4.16666 10C4.16666 10.442 4.34225 10.866 4.65481 11.1785C4.96737 11.4911 5.3913 11.6667 5.83333 11.6667Z" fill="#00A49D"/>
</svg>
