<?xml version="1.0" encoding="iso-8859-1"?>
<!-- Generator: Adobe Illustrator 21.0.0, SVG Export Plug-In . SVG Version: 6.00 Build 0)  -->
<svg xmlns="http://www.w3.org/2000/svg" xmlns:xlink="http://www.w3.org/1999/xlink" version="1.1" id="Capa_1" x="0px" y="0px" viewBox="0 0 512 512" style="enable-background:new 0 0 512 512;" xml:space="preserve" width="512" height="512">
<g>
	<path d="M227.493,102.86c0-23.953-19.514-43.441-43.5-43.441s-43.5,19.488-43.5,43.441s19.514,43.441,43.5,43.441   S227.493,126.813,227.493,102.86z M170.493,102.86c0-7.434,6.056-13.482,13.5-13.482s13.5,6.048,13.5,13.482   s-6.056,13.482-13.5,13.482S170.493,110.294,170.493,102.86z"/>
	<path d="M373.993,277.622c-23.986,0-43.5,19.488-43.5,43.441c0,23.953,19.514,43.441,43.5,43.441s43.5-19.488,43.5-43.441   C417.493,297.11,397.978,277.622,373.993,277.622z M373.993,334.545c-7.444,0-13.5-6.048-13.5-13.482   c0-7.434,6.056-13.482,13.5-13.482s13.5,6.048,13.5,13.482C387.493,328.497,381.436,334.545,373.993,334.545z"/>
	<path d="M373.993,218.203c-73.999,0-158.831,83.662-53.142,237.046L84.359,345.91l106.421-53.931l-0.002-0.004   c6.614-3.352,96.215-96.566,96.215-189.115c0-56.717-46.206-102.86-103-102.86s-103,46.143-103,102.86   c0,71.782,52.771,141.501,78.601,171.327L43.205,333.171c-11.16,5.655-10.854,21.709,0.486,26.951   c354.041,163.685,326.842,151.682,330.302,151.682c3.839,0,7.678-1.462,10.606-4.388c3.772-3.767,92.394-93.337,92.394-186.353   C476.993,264.346,430.787,218.203,373.993,218.203z M183.993,29.959c40.252,0,73,32.703,73,72.901   c0,62.89-50.484,127.779-73,153.588c-22.516-25.809-73-90.698-73-153.588C110.993,62.662,143.74,29.959,183.993,29.959z    M373.993,474.652c-22.516-25.809-73-90.698-73-153.588c0-40.198,32.748-72.901,73-72.901s73,32.703,73,72.901   C446.993,383.953,396.508,448.842,373.993,474.652z"/>
</g>















</svg>
