<svg width="85" height="24" viewBox="0 0 85 24" fill="none" xmlns="http://www.w3.org/2000/svg">
<path d="M10.625 18H8.89062V8.32812H3.25V18H1.49219V6.72656H10.625V18ZM18.4219 11.3594C18.0469 10.9583 17.5495 10.7578 16.9297 10.7578C16.3099 10.7578 15.7995 10.9583 15.3984 11.3594C14.9974 11.7604 14.7734 12.2943 14.7266 12.9609H19.0234C19.0026 12.2891 18.8021 11.7552 18.4219 11.3594ZM19.0156 15.7031H20.6328C20.4401 16.4688 20.0182 17.0703 19.3672 17.5078C18.7214 17.9453 17.9141 18.1641 16.9453 18.1641C15.7266 18.1641 14.7656 17.7734 14.0625 16.9922C13.3646 16.2057 13.0156 15.1328 13.0156 13.7734C13.0156 12.4141 13.3698 11.3333 14.0781 10.5312C14.7865 9.72917 15.7396 9.32812 16.9375 9.32812C18.1198 9.32812 19.0469 9.70833 19.7188 10.4688C20.3958 11.2292 20.7344 12.2786 20.7344 13.6172V14.2031H14.7266V14.2969C14.7526 15.0469 14.9688 15.6406 15.375 16.0781C15.7812 16.5156 16.3203 16.7344 16.9922 16.7344C18.0182 16.7344 18.6927 16.3906 19.0156 15.7031ZM29.6016 18H27.9219V14.2656H27.7891C27.2057 14.8385 26.4609 15.125 25.5547 15.125C24.6432 15.125 23.9245 14.8464 23.3984 14.2891C22.8724 13.7266 22.6094 12.974 22.6094 12.0312V9.49219H24.2891V11.8828C24.2891 12.4141 24.4297 12.8333 24.7109 13.1406C24.9922 13.4427 25.3802 13.5938 25.875 13.5938C26.1615 13.5938 26.4271 13.5599 26.6719 13.4922C26.9219 13.4193 27.1276 13.3281 27.2891 13.2188C27.4505 13.1094 27.5807 13.0078 27.6797 12.9141C27.7786 12.8151 27.8594 12.7188 27.9219 12.625V9.49219H29.6016V18ZM34.9688 16.7266C35.599 16.7266 36.1224 16.5495 36.5391 16.1953C36.9609 15.8411 37.1719 15.3984 37.1719 14.8672V14.1562L35.0938 14.2891C34.5104 14.3255 34.0807 14.4453 33.8047 14.6484C33.5286 14.8516 33.3906 15.1406 33.3906 15.5156C33.3906 15.8906 33.5365 16.1875 33.8281 16.4062C34.1198 16.6198 34.5 16.7266 34.9688 16.7266ZM34.5391 18.1406C33.7057 18.1406 33.0234 17.9089 32.4922 17.4453C31.9661 16.9766 31.7031 16.3594 31.7031 15.5938C31.7031 14.8333 31.9766 14.237 32.5234 13.8047C33.0703 13.3672 33.8516 13.1172 34.8672 13.0547L37.1719 12.9219V12.1875C37.1719 11.7344 37.0234 11.388 36.7266 11.1484C36.4297 10.9036 35.9974 10.7812 35.4297 10.7812C34.9609 10.7812 34.5703 10.8646 34.2578 11.0312C33.9505 11.1927 33.75 11.4245 33.6562 11.7266H32.0312C32.1146 10.9974 32.4714 10.4167 33.1016 9.98438C33.737 9.54688 34.5391 9.32812 35.5078 9.32812C36.5703 9.32812 37.3906 9.58073 37.9688 10.0859C38.5521 10.5859 38.8438 11.2865 38.8438 12.1875V18H37.2266V16.8047H37.0938C36.8385 17.2318 36.487 17.5625 36.0391 17.7969C35.5964 18.026 35.0964 18.1406 34.5391 18.1406ZM47.6797 9.49219V10.9062H45V18H43.3203V10.9062H40.6406V9.49219H47.6797ZM52.7344 13.5078H51.2422V16.5859H52.7344C53.2396 16.5859 53.6432 16.4453 53.9453 16.1641C54.2526 15.8828 54.4062 15.5104 54.4062 15.0469C54.4062 14.5833 54.2526 14.2109 53.9453 13.9297C53.6432 13.6484 53.2396 13.5078 52.7344 13.5078ZM49.5625 18V9.49219H51.2422V12.1016H52.8594C53.8438 12.1016 54.6276 12.3672 55.2109 12.8984C55.7943 13.4297 56.0859 14.1458 56.0859 15.0469C56.0859 15.9479 55.7943 16.6667 55.2109 17.2031C54.6276 17.7344 53.8438 18 52.8594 18H49.5625Z" fill="#2C2C2C"/>
<path d="M70.8332 16.166H79.1665V20.3327H70.8332V16.166ZM80.8332 18.666V14.4993H69.1665V18.666H67.4998C67.2788 18.666 67.0669 18.5782 66.9106 18.4219C66.7543 18.2657 66.6665 18.0537 66.6665 17.8327V9.49935C66.6665 9.27834 66.7543 9.06637 66.9106 8.91009C67.0669 8.75381 67.2788 8.66602 67.4998 8.66602H82.4998C82.7209 8.66602 82.9328 8.75381 83.0891 8.91009C83.2454 9.06637 83.3332 9.27834 83.3332 9.49935V17.8327C83.3332 18.0537 83.2454 18.2657 83.0891 18.4219C82.9328 18.5782 82.7209 18.666 82.4998 18.666H80.8332ZM69.1665 10.3327V11.9993H71.6665V10.3327H69.1665ZM70.8332 3.66602H79.1665C79.3875 3.66602 79.5995 3.75381 79.7558 3.91009C79.912 4.06637 79.9998 4.27834 79.9998 4.49935V6.99935H69.9998V4.49935C69.9998 4.27834 70.0876 4.06637 70.2439 3.91009C70.4002 3.75381 70.6122 3.66602 70.8332 3.66602Z" fill="#2C2C2C"/>
</svg>
