<svg width="20" height="20" viewBox="0 0 20 20" fill="none" xmlns="http://www.w3.org/2000/svg">
<path d="M5.83335 14.166H14.1667V18.3327H5.83335V14.166ZM15.8334 16.666V12.4993H4.16669V16.666H2.50002C2.27901 16.666 2.06704 16.5782 1.91076 16.4219C1.75448 16.2657 1.66669 16.0537 1.66669 15.8327V7.49935C1.66669 7.27834 1.75448 7.06637 1.91076 6.91009C2.06704 6.75381 2.27901 6.66602 2.50002 6.66602H17.5C17.721 6.66602 17.933 6.75381 18.0893 6.91009C18.2456 7.06637 18.3334 7.27834 18.3334 7.49935V15.8327C18.3334 16.0537 18.2456 16.2657 18.0893 16.4219C17.933 16.5782 17.721 16.666 17.5 16.666H15.8334ZM4.16669 8.33268V9.99935H6.66669V8.33268H4.16669ZM5.83335 1.66602H14.1667C14.3877 1.66602 14.5997 1.75381 14.7559 1.91009C14.9122 2.06637 15 2.27834 15 2.49935V4.99935H5.00002V2.49935C5.00002 2.27834 5.08782 2.06637 5.2441 1.91009C5.40038 1.75381 5.61234 1.66602 5.83335 1.66602Z" fill="#FF5930"/>
</svg>
