<svg width="14" height="19" viewBox="0 0 14 19" fill="none" xmlns="http://www.w3.org/2000/svg">
<path d="M0.333374 18.3333C0.333374 16.5652 1.03575 14.8695 2.286 13.6193C3.53624 12.369 5.23193 11.6666 7.00004 11.6666C8.76815 11.6666 10.4638 12.369 11.7141 13.6193C12.9643 14.8695 13.6667 16.5652 13.6667 18.3333H12C12 17.0072 11.4733 15.7355 10.5356 14.7978C9.59789 13.8601 8.32612 13.3333 7.00004 13.3333C5.67396 13.3333 4.40219 13.8601 3.46451 14.7978C2.52682 15.7355 2.00004 17.0072 2.00004 18.3333H0.333374ZM7.00004 10.8333C4.23754 10.8333 2.00004 8.59581 2.00004 5.83331C2.00004 3.07081 4.23754 0.833313 7.00004 0.833313C9.76254 0.833313 12 3.07081 12 5.83331C12 8.59581 9.76254 10.8333 7.00004 10.8333ZM7.00004 9.16665C8.84171 9.16665 10.3334 7.67498 10.3334 5.83331C10.3334 3.99165 8.84171 2.49998 7.00004 2.49998C5.15837 2.49998 3.66671 3.99165 3.66671 5.83331C3.66671 7.67498 5.15837 9.16665 7.00004 9.16665Z" fill="#B3B3B3"/>
</svg>
