<svg width="18" height="16" viewBox="0 0 18 16" fill="none" xmlns="http://www.w3.org/2000/svg">
<path d="M1.49996 15.5C1.27895 15.5 1.06698 15.4122 0.910704 15.2559C0.754423 15.0996 0.666626 14.8877 0.666626 14.6667V1.33333C0.666626 1.11232 0.754423 0.900358 0.910704 0.744078C1.06698 0.587797 1.27895 0.5 1.49996 0.5H7.67829L9.34496 2.16667H15.6666C15.8876 2.16667 16.0996 2.25446 16.2559 2.41074C16.4122 2.56702 16.5 2.77899 16.5 3V5.5H14.8333V3.83333H8.65496L6.98829 2.16667H2.33329V12.165L3.58329 7.16667H17.75L15.825 14.8692C15.7798 15.0494 15.6758 15.2093 15.5293 15.3236C15.3828 15.4379 15.2024 15.5 15.0166 15.5H1.49996ZM15.615 8.83333H4.88496L3.63496 13.8333H14.365L15.615 8.83333Z" fill="#B3B3B3"/>
</svg>
