<svg width="20" height="20" viewBox="0 0 20 20" fill="none" xmlns="http://www.w3.org/2000/svg">
<path fill-rule="evenodd" clip-rule="evenodd" d="M9.16661 1.6499C7.78225 1.6499 6.65896 2.76766 6.65 4.1499H4.16661H3.33328C2.86383 4.1499 2.48328 4.53046 2.48328 4.9999C2.48328 5.46934 2.86383 5.8499 3.33328 5.8499H4.16661H4.30542L4.98707 15.984L4.98719 15.9859C5.06774 17.2587 6.12352 18.2499 7.39903 18.2499H12.6009C13.8763 18.2499 14.9321 17.2587 15.0127 15.986L15.0128 15.984L15.6945 5.8499H15.8333H16.6666C17.1361 5.8499 17.5166 5.46934 17.5166 4.9999C17.5166 4.53046 17.1361 4.1499 16.6666 4.1499H15.8333H13.3499C13.3409 2.76766 12.2176 1.6499 10.8333 1.6499H9.16661ZM11.6498 4.1499H8.35011C8.35898 3.70656 8.72115 3.3499 9.16661 3.3499H10.8333C11.2787 3.3499 11.6409 3.70656 11.6498 4.1499ZM12.7658 8.36963C12.7859 7.90062 12.422 7.50412 11.953 7.48401C11.484 7.46391 11.0875 7.82783 11.0674 8.29684L10.8174 14.1302C10.7973 14.5992 11.1612 14.9957 11.6302 15.0158C12.0992 15.0359 12.4957 14.672 12.5158 14.203L12.7658 8.36963ZM8.9325 8.29684C8.9124 7.82783 8.5159 7.46391 8.04689 7.48401C7.57788 7.50412 7.21396 7.90062 7.23406 8.36963L7.48406 14.203C7.50416 14.672 7.90067 15.0359 8.36968 15.0158C8.83869 14.9957 9.20261 14.5992 9.18251 14.1302L8.9325 8.29684Z" fill="white" fill-opacity="0.6"/>
</svg>
