<svg width="18" height="18" viewBox="0 0 18 18" fill="none" xmlns="http://www.w3.org/2000/svg">
<path d="M14.4476 15.3059C12.9354 16.6162 11.0009 17.3362 9.00008 17.3334C4.39758 17.3334 0.666748 13.6026 0.666748 9.00008C0.666748 4.39758 4.39758 0.666748 9.00008 0.666748C13.6026 0.666748 17.3334 4.39758 17.3334 9.00008C17.3334 10.7801 16.7751 12.4301 15.8251 13.7834L13.1667 9.00008H15.6667C15.6666 7.46359 15.1358 5.9743 14.164 4.78416C13.1922 3.59401 11.8391 2.77608 10.3337 2.46871C8.82825 2.16135 7.26286 2.38343 5.90231 3.09739C4.54177 3.81134 3.4696 4.97334 2.86718 6.38682C2.26477 7.80029 2.16909 9.37846 2.59632 10.8544C3.02356 12.3303 3.94749 13.6133 5.21182 14.4864C6.47614 15.3595 8.00324 15.7691 9.53479 15.6458C11.0663 15.5226 12.5083 14.8741 13.6167 13.8101L14.4476 15.3059Z" fill="#FF5930"/>
</svg>
